<?xml version="1.0" standalone="no"?>
<!DOCTYPE svg PUBLIC "-//W3C//DTD SVG 1.1//EN" "http://www.w3.org/Graphics/SVG/1.1/DTD/svg11.dtd" >
<svg xmlns="http://www.w3.org/2000/svg" xmlns:xlink="http://www.w3.org/1999/xlink" version="1.1">
<metadata>
Created by FontForge 20200511 at Sun Mar  9 21:24:34 2025
 By convertio
</metadata>
<defs>
<font id="Ying-Regular" horiz-adv-x="220" >
  <font-face 
    font-family="Ying"
    font-weight="400"
    font-stretch="normal"
    units-per-em="1000"
    panose-1="2 0 5 3 0 0 0 0 0 0"
    ascent="800"
    descent="-200"
    x-height="436"
    cap-height="643"
    bbox="8 -185 516 774"
    underline-thickness="50"
    underline-position="-100"
    unicode-range="U+000D-00A0"
  />
<missing-glyph horiz-adv-x="364" 
d="M33 0v666h265v-666h-265zM66 33h199v600h-199v-600z" />
    <glyph glyph-name=".notdef" horiz-adv-x="364" 
d="M33 0v666h265v-666h-265zM66 33h199v600h-199v-600z" />
    <glyph glyph-name=".null" 
 />
    <glyph glyph-name=".null" 
 />
    <glyph glyph-name="nonmarkingreturn" horiz-adv-x="333" 
 />
    <glyph glyph-name="CR" unicode="&#xd;" 
 />
    <glyph glyph-name="space" unicode=" " 
 />
    <glyph glyph-name="exclam" unicode="!" horiz-adv-x="109" 
d="M33 677q5 5 19 3q14 -1 20 -13q11 -19 11 -57q0 -39 -10 -109q-8 -56 -8 -105q0 -64 15 -95q7 -13 7 -22q0 -7 -6 -16q-8 -14 -20 -14q-27 0 -44 54q-8 26 -8 60q0 45 12 120q6 38 6 114q0 55 1 66t5 14zM48 177q8 4 17 4q13 0 23 -10q13 -13 13 -29q0 -29 -33 -37
q-14 -2 -18 -2q-15 0 -20 20q-4 20 -4 24q0 20 22 30z" />
    <glyph glyph-name="quotedbl" unicode="&#x22;" horiz-adv-x="184" 
d="M14 768q6 6 11 6q8 0 17 -9q12 -12 14.5 -21t2.5 -41v-39q-1 -76 -5 -83q-9 -22 -25 -22q-6 0 -12 6q-5 6 -7 101q-1 34 -1 70q0 27 5 32zM128 763q7 11 15 11q10 0 15.5 -5t9.5 -20q7 -19 8 -91v-33q0 -33 -2.5 -41.5t-12.5 -12.5q-6 -2 -9 -2q-12 0 -19 16
q-10 20 -15 93q-1 13 -1 33q0 35 11 52z" />
    <glyph glyph-name="quotedbl" unicode="&#x201e;" horiz-adv-x="184" 
d="M14 768q6 6 11 6q8 0 17 -9q12 -12 14.5 -21t2.5 -41v-39q-1 -76 -5 -83q-9 -22 -25 -22q-6 0 -12 6q-5 6 -7 101q-1 34 -1 70q0 27 5 32zM128 763q7 11 15 11q10 0 15.5 -5t9.5 -20q7 -19 8 -91v-33q0 -33 -2.5 -41.5t-12.5 -12.5q-6 -2 -9 -2q-12 0 -19 16
q-10 20 -15 93q-1 13 -1 33q0 35 11 52z" />
    <glyph glyph-name="quotedbl" unicode="&#x201d;" horiz-adv-x="184" 
d="M14 768q6 6 11 6q8 0 17 -9q12 -12 14.5 -21t2.5 -41v-39q-1 -76 -5 -83q-9 -22 -25 -22q-6 0 -12 6q-5 6 -7 101q-1 34 -1 70q0 27 5 32zM128 763q7 11 15 11q10 0 15.5 -5t9.5 -20q7 -19 8 -91v-33q0 -33 -2.5 -41.5t-12.5 -12.5q-6 -2 -9 -2q-12 0 -19 16
q-10 20 -15 93q-1 13 -1 33q0 35 11 52z" />
    <glyph glyph-name="quotedbl" unicode="&#x201c;" horiz-adv-x="184" 
d="M14 768q6 6 11 6q8 0 17 -9q12 -12 14.5 -21t2.5 -41v-39q-1 -76 -5 -83q-9 -22 -25 -22q-6 0 -12 6q-5 6 -7 101q-1 34 -1 70q0 27 5 32zM128 763q7 11 15 11q10 0 15.5 -5t9.5 -20q7 -19 8 -91v-33q0 -33 -2.5 -41.5t-12.5 -12.5q-6 -2 -9 -2q-12 0 -19 16
q-10 20 -15 93q-1 13 -1 33q0 35 11 52z" />
    <glyph glyph-name="ampersand" unicode="&#x26;" horiz-adv-x="443" 
d="M197 297q-12 6 -16 6q-20 0 -63 -56q-16 -22 -23 -24q-5 -1 -12.5 -15t-7.5 -22q0 -25 38 -25q1 0 5 0.5t6 0.5q38 4 92.5 19.5t63.5 25.5q5 5 1 12q-6 12 -35 39t-49 39zM167 543q-4 10 -9.5 12.5t-20.5 2.5q-9 0 -11.5 -1.5t-4.5 -10.5q-3 -12 -3 -26q0 -59 42 -114
q7 -9 10 -2q12 24 12 57q0 39 -15 82zM120 622q16 4 33 4q24 0 32 -5q13 -6 27.5 -34t18.5 -52q4 -30 4 -48q0 -63 -19 -111q-8 -19 -4 -23q9 -9 59 -51l56 -48l25 2l25 1l-2 -26q0 -3 -0.5 -7.5t-0.5 -6.5q0 -14 5 -19.5t21 -11.5q35 -14 35 -36q0 -7 -3 -13
q-3 -7 -11.5 -13.5t-15.5 -6.5q-4 0 -32 13q-26 13 -34 24q-9 13 -17 13q-10 0 -31 -14q-37 -24 -101 -38q-27 -6 -72 -6q-46 0 -63 6q-15 6 -28.5 17.5t-16.5 21.5q-1 3 -1 10q0 37 67 111q56 62 56 71q0 8 -20 39q-28 43 -42 95q-13 47 -13 72q0 12 3 20q11 34 60 50z" />
    <glyph glyph-name="quotesingle" unicode="'" horiz-adv-x="68" 
d="M15 616q10 11 26 -2q13 -12 16 -24.5t3 -58.5q0 -78 -10 -99q-9 -18 -24 -15q-11 3 -13 17t-3 87v56q0 34 5 39z" />
    <glyph glyph-name="quotesingle" unicode="&#x201a;" horiz-adv-x="68" 
d="M15 616q10 11 26 -2q13 -12 16 -24.5t3 -58.5q0 -78 -10 -99q-9 -18 -24 -15q-11 3 -13 17t-3 87v56q0 34 5 39z" />
    <glyph glyph-name="quotesingle" unicode="&#x2019;" horiz-adv-x="68" 
d="M15 616q10 11 26 -2q13 -12 16 -24.5t3 -58.5q0 -78 -10 -99q-9 -18 -24 -15q-11 3 -13 17t-3 87v56q0 34 5 39z" />
    <glyph glyph-name="quotesingle" unicode="&#x2018;" horiz-adv-x="68" 
d="M15 616q10 11 26 -2q13 -12 16 -24.5t3 -58.5q0 -78 -10 -99q-9 -18 -24 -15q-11 3 -13 17t-3 87v56q0 34 5 39z" />
    <glyph glyph-name="parenleft" unicode="(" horiz-adv-x="181" 
d="M106 634q6 2 10 2q10 0 22 -6q8 -5 8 -11q0 -8 -11 -19q-17 -18 -36 -66.5t-30 -99.5q-12 -62 -12 -122q0 -132 47 -196q15 -21 22.5 -27.5t20.5 -7.5q25 -3 25 -27q0 -7 -2 -11q-7 -19 -25 -19q-11 0 -25 9q-38 27 -61 61q-38 55 -48 156q-2 30 -2 52q0 65 9 134.5
t23 100.5q8 19 33 56.5t32 40.5z" />
    <glyph glyph-name="parenright" unicode=")" horiz-adv-x="194" 
d="M17 619q4 4 25 4q14 0 17 -2q11 -4 45 -57.5t47 -88.5q35 -89 35 -155q0 -15 -1 -22q-10 -114 -77 -234q-20 -37 -26 -44.5t-13 -7.5q-16 0 -29.5 13t-13.5 27q0 6 3 9.5t17 10.5q14 8 19.5 13t12.5 17q16 27 35 80t25 87q3 19 3 43q0 41 -7 68q-6 22 -29.5 80.5
t-30.5 68.5q-16 23 -48 34q-15 5 -16 12q0 1 -0.5 3t-0.5 4q0 27 8 37z" />
    <glyph glyph-name="comma" unicode="," horiz-adv-x="109" 
d="M36 211q9 10 17 10q9 0 21 -11q26 -23 26 -59q0 -26 -11 -56q-11 -32 -23 -48q-9 -11 -17 -25q-7 -13 -23 -13q-7 0 -12 5.5t-5 13.5q0 13 26 43q22 25 24 56l1 14l-11 2q-28 6 -28 31q0 20 15 37z" />
    <glyph glyph-name="hyphen" unicode="-" horiz-adv-x="267" 
d="M150 328q51 7 66 7h25l9 -10q9 -9 9 -19q0 -8 -8 -17.5t-18 -12.5q-11 -3 -28 5q-15 7 -35 7q-23 0 -59 -7t-53 -7q-10 0 -21 3q-10 3 -19 11.5t-9 14.5t9 15q8 8 14 8l16 -2q22 -2 32 -2q25 0 70 6z" />
    <glyph glyph-name="period" unicode="." horiz-adv-x="99" 
d="M34 220q11 11 21 11q14 0 28 -23q8 -13 8 -33q0 -32 -24 -53q-12 -11 -25 -11q-33 0 -33 42v8q1 35 25 59z" />
    <glyph glyph-name="slash" unicode="/" horiz-adv-x="357" 
d="M288 607q4 1 20 11.5t24 10.5t12 -7q5 -7 5 -14q0 -18 -25 -47q-27 -34 -65 -110q-44 -89 -130 -220q-28 -43 -40 -67q-23 -45 -41 -52q-8 -2 -10 -2q-9 0 -20 14q-9 10 -9 18q0 9 22 34q40 45 58 69.5t54 83.5q49 81 92.5 166t43.5 102q0 8 9 10z" />
    <glyph glyph-name="zero" unicode="0" horiz-adv-x="272" 
d="M145 557q-17 5 -24 5q-11 0 -25.5 -26.5t-21.5 -59.5q-11 -50 -11 -109q0 -35 1 -57q2 -90 2 -100q1 -32 22 -40q7 -3 14 -3q55 0 87 171q13 64 18 143q1 9 1 22t-6 29q-9 25 -20 25q-5 0 -8 -1q-11 -4 -29 1zM102 619q9 9 27 2q9 -3 17 -3q1 0 17 2q21 3 35 3
q19 0 35 -8l14 -8l9 -33q8 -27 8 -36q0 -2 -2 -14q-3 -15 -3 -55v-40q0 -9 0.5 -23t0.5 -19q0 -51 -8.5 -81t-35.5 -86q-50 -100 -103 -109q-18 -2 -21 -2q-20 0 -46 26l-24 24l-5 33q-8 55 -8 129q0 35 1 51q6 107 24.5 166t46.5 59q11 0 12 7q2 8 9 15z" />
    <glyph glyph-name="one" unicode="1" horiz-adv-x="103" 
d="M36 619q3 4 9 4q21 0 35 -21q10 -15 12.5 -35.5t2.5 -76.5q0 -61 -10 -145q-9 -83 -11 -128q0 -9 -0.5 -20.5t-0.5 -14.5q0 -16 7 -33q8 -21 8 -28q0 -12 -19 -15h-7q-20 0 -40 14l-13 9l1 33q2 33 9 69q10 52 12.5 87.5t2.5 148.5q0 148 2 152z" />
    <glyph glyph-name="two" unicode="2" horiz-adv-x="334" 
d="M121 619q17 7 28 7q24 0 42 -21q26 -29 26 -83q0 -60 -32 -141q-7 -19 -39.5 -93t-36.5 -83l-7 -18h15q17 0 43 7q27 7 55 7q19 0 25.5 2t26.5 12q22 11 32 11h4q11 -2 16 -7t6 -15l1 -13l-24 -15q-37 -23 -58.5 -30.5t-67.5 -13.5q-45 -6 -62 -13q-20 -8 -43 -8
q-31 0 -38 3t-15 19q-9 18 -9 22q0 6 8 11q9 6 13 17q5 16 30 62q97 182 97 277q0 17 -3.5 22.5t-13.5 5.5q-12 0 -13 -7q-2 -9 -9 -12q-6 -4 -16 -28q-13 -35 -37 -39h-5q-18 0 -24 19q-4 9 -4 18q0 14 22 50q18 30 32 44t35 24z" />
    <glyph glyph-name="three" unicode="3" horiz-adv-x="298" 
d="M169 624q4 1 26 1q21 0 29 -6q25 -17 25 -49q0 -8 -1 -12q-3 -16 -13 -44t-14 -31q-6 -6 -8 -13t-19 -26q-17 -17 -17 -23q0 -4 17 -6q38 -4 63 -29q19 -19 25 -36t8 -56v-10q0 -58 -23 -105q-11 -24 -25 -36.5t-39 -21.5q-26 -9 -73 -9h-47l-27 13q-42 21 -46 40
q0 1 -0.5 3.5t-0.5 3.5q0 15 11 27.5t24 12.5q8 0 18 -8q10 -9 10 -18q0 -14 30 -20q12 -2 18 -2q32 0 63.5 19.5t45.5 46.5q12 23 12 61q0 31 -9 49q-12 25 -51 25q-20 0 -36 -8t-19 -8q-7 0 -21 -7t-22 -7q-7 0 -16 6q-15 9 -15 23q0 4 2 14q3 17 8 21.5t19 4.5h9h11
q12 0 21 8q20 18 38 75q6 19 11 24q10 10 10 23q0 17 -14 23q-8 3 -14 3q-27 0 -60 -41q-16 -21 -21.5 -25.5t-13.5 -4.5q-11 0 -21.5 17t-10.5 34v12l43 26q65 40 100 46z" />
    <glyph glyph-name="four" unicode="4" horiz-adv-x="256" 
d="M201 595q12 4 17 4q14 0 26 -26q5 -11 1 -21q-9 -18 -18 -205q-5 -115 -12 -138q-4 -16 -4 -27q0 -12 7 -16q6 -3 12 -13q4 -10 -1 -21q-6 -14 -5 -21q1 -11 -6 -17q-16 -12 -34 -12q-16 0 -22 12q-3 4 -3 25q0 26 7 104.5t7 101.5q0 22 -4 22l-34 -10q-32 -9 -60 -9
q-29 0 -43 7q-16 8 -19 19t-4 61v22q0 34 5 51q4 11 4 43v9q0 20 4 28t16 10h6q22 0 35 -11q8 -7 8 -19q0 -11 -7 -26q-18 -38 -23 -103q-2 -26 -2 -29q0 -10 3.5 -12t16.5 -2h3q17 0 26 4t24 5q34 3 46 16q6 7 6 94q1 73 3 83.5t18 16.5z" />
    <glyph glyph-name="five" unicode="5" horiz-adv-x="323" 
d="M247 612q29 7 46 7q16 0 20 -10q1 -3 1 -8q0 -12 -11.5 -23.5t-27.5 -15.5q-48 -11 -107 -19q-42 -5 -48 -8q-4 -4 -4 -13q0 -8 -9 -19q-13 -16 -19 -48q-4 -28 -4 -36t2 -16q1 -7 15 -7q26 0 68 -15.5t65 -33.5q14 -11 23.5 -31.5t9.5 -39.5q0 -29 -29 -79
q-13 -21 -29 -39t-23 -18q-5 0 -32 -9q-80 -26 -104 -26q-11 0 -22.5 7t-15.5 15q-4 7 -3.5 10.5t8.5 15.5q26 42 46 42q12 0 19 -8q8 -9 19 -7q17 3 47.5 16t43.5 23q17 14 17 51q0 14 -4 21q-6 9 -13 13q-11 6 -100 32q-18 6 -37 17q-19 10 -25.5 21t-6.5 33q0 19 7 28
q8 9 7 25t4 22q5 8 5 18q0 2 -0.5 8.5t-0.5 10.5q-2 30 -6 36q-8 14 3 24q5 5 14 6.5t46 2.5q51 1 84 10q8 2 30.5 7t30.5 7z" />
    <glyph glyph-name="six" unicode="6" horiz-adv-x="299" 
d="M231 266q-4 4 -11 -4q-4 -4 -20 -6q-12 -1 -19 -7.5t-34 -40.5q-19 -24 -19 -28q0 -5 21 -5h21l23 17q15 12 19.5 17.5t7.5 17.5q2 5 4.5 14.5t3.5 12.5q4 11 3 12zM111 599q9 3 18 3q18 0 30.5 -9.5t12.5 -23.5q0 -9 -13.5 -26.5t-21.5 -20.5q-22 -7 -51 -128
q-22 -91 -22 -136q0 -18 3 -29q3 -9 7 -9q7 0 45 39q76 76 108 76q27 0 47 -11q16 -9 16 -46q0 -48 -24 -90q-27 -46 -106 -67q-20 -5 -45 -5q-19 0 -22 3q-8 8 -17 -11q-8 -15 -16 -19q-8 -3 -14 -3q-12 0 -20 6.5t-8 16.5q0 7 6 31l7 22l-11 19q-8 15 -9.5 22t-1.5 34
q0 117 58 275q16 43 17 52q4 28 27 35z" />
    <glyph glyph-name="seven" unicode="7" horiz-adv-x="322" 
d="M231 612q28 14 40 14q16 0 34 -19q8 -10 8 -18q0 -9 -12 -30q-19 -32 -33 -120q-4 -26 -28.5 -121t-24.5 -115v-7v-5t0.5 -4t1 -2.5t2 -2.5t2.5 -1.5t4 -2.5q11 -7 11 -15q0 -19 -9.5 -33.5t-25.5 -18.5q-4 -1 -12 -1q-16 0 -30 8.5t-18 21.5l-1 4v8q0 3 0.5 10.5
t0.5 11.5q2 28 10 39q10 17 19 45q19 59 42 163t23 128q0 1 -1 3v1q-1 1 -16 -1q-4 -1 -51 -3q-34 -1 -68 -13q-35 -12 -47 -12q-9 0 -18 3q-25 6 -25 27q0 10 5 19q12 23 36 23q10 0 18 -4q6 -3 12 -3q10 0 42 9q15 4 51 4q35 0 58 10z" />
    <glyph glyph-name="eight" unicode="8" horiz-adv-x="329" 
d="M155 334q-13 15 -15 15q-4 0 -21.5 -24t-28.5 -44q-17 -34 -17 -62q0 -11 1 -16q3 -17 21 -30t38 -13q23 0 30 17q2 5 11 10q19 9 19 43q0 55 -38 104zM131 571q-10 5 -23 -7q-19 -19 -19 -42v-8q2 -22 5 -29t13 -19q15 -17 17 -24q4 -9 18 -23l24 27q25 29 27 33
q3 7 -9 18q-14 14 -30 41q-19 32 -23 33zM101 620q13 5 29 5q15 0 36 -13q10 -7 19 -7q7 0 9 -2.5t5 -12.5q1 -3 2 -7.5t2 -7t1 -3.5q0 -5 12 -15q9 -8 10 -11t0 -16l1 -12v1q1 4 19 20q16 14 22 26q12 23 33 23q13 0 18 -7q2 -4 2 -5q0 -7 -43 -61q-32 -42 -75 -96
q-28 -35 -28 -38q0 -4 10 -14q7 -9 26.5 -47t25.5 -56q4 -11 4 -22q0 -15 -10 -42q-4 -10 -7 -21t-5 -16t-6.5 -11.5t-12.5 -13.5q-37 -29 -69 -29q-36 0 -71 35q-17 17 -34 44t-17 36q0 7 10 22q10 16 14 30q6 27 34 57q38 41 38 57q0 6 -14 20q-27 25 -47 78q-7 21 -7 38
q0 16 7 37q7 17 24 34.5t33 22.5z" />
    <glyph glyph-name="nine" unicode="9" horiz-adv-x="272" 
d="M184 569q-2 7 -23 0q-24 -9 -53 -36t-36 -48q-11 -33 -11 -78v-7l1 -20l11 -1h3q18 0 27 17q4 7 29.5 22t25.5 19q0 1 -0.5 2t-0.5 3q0 26 18 76q10 29 10 42q0 7 -1 9zM161 631q3 2 13 2q22 0 35 -7q18 -9 29 -57q6 -32 16 -52l10 -22l-12 -29q-13 -27 -25 -80
q-31 -132 -31 -204q0 -12 1 -15q1 -2 5.5 -13.5t4.5 -18.5q0 -5 -1 -7q-8 -23 -31 -23q-11 0 -21 6q-14 8 -14 23q0 8 3 24q27 162 35 198q7 32 7 42q0 12 -5 12t-19 -22q-13 -21 -29 -31q-55 -34 -70 -34q-11 0 -31.5 15t-20.5 29q0 4 1.5 16l2.5 20q0 7 8 45t8 53
q0 2 -0.5 4.5t-0.5 3.5q-1 9 5 9q12 0 17 22q2 11 29.5 35t64.5 46q10 6 16 10z" />
    <glyph glyph-name="colon" unicode=":" horiz-adv-x="120" 
d="M32 493q8 4 25 4q19 0 29 -5q26 -12 26 -35q0 -10 -4 -18q-12 -27 -41 -28q-17 -2 -23 2q-6 3 -16.5 21.5t-12.5 28.5v5q0 16 17 25zM41 223q14 7 30 7q21 0 32 -15q5 -8 5 -29q0 -26 -6 -39q-13 -29 -42 -29q-4 0 -12 2q-18 6 -28 21t-10 32q0 34 31 50z" />
    <glyph glyph-name="semicolon" unicode=";" horiz-adv-x="155" 
d="M100 512q7 3 30 -5l17 -4l-2 -30q-1 -30 -2.5 -39t-8.5 -15q-16 -14 -34 -14q-13 0 -23 8q-10 9 -10 32q0 21 10 41.5t23 25.5zM85 242q9 6 21 6q10 0 16 -6t6 -25q0 -37 -18 -76q-6 -13 -32.5 -56t-34.5 -51q-4 -4 -12 -4q-9 0 -18 6q-6 5 0 17q2 5 27 48q27 46 27 72
q0 7 -2 27q-2 19 5 28t15 14z" />
    <glyph glyph-name="question" unicode="?" horiz-adv-x="280" 
d="M116 650q20 5 36 5q48 0 84 -28.5t36 -73.5q0 -32 -16.5 -61.5t-59.5 -72.5q-35 -37 -45 -56q-13 -28 -13 -56q0 -12 3 -24q1 -4 1 -12q0 -23 -19 -23q-11 0 -21.5 8.5t-15.5 22.5q-4 11 -4 20q0 12 8 40q10 37 21.5 57.5t40.5 51.5q63 67 63 98q0 2 -0.5 4t-0.5 4
q-8 43 -57 43q-13 0 -35 -5q-61 -17 -73 -53q-8 -22 -21 -14q-19 12 -19 35q0 22 18 42q11 11 40.5 27.5t48.5 20.5zM84 134q0 12 11 24t23 16q14 5 25 0q19 -8 19 -25q0 -9 -7 -23q-14 -24 -41 -24q-12 0 -21 10t-9 22z" />
    <glyph glyph-name="A" unicode="A" horiz-adv-x="336" 
d="M192 466q-1 13 -7 32t-12 22q-1 1 -3 -2t-5 -8q-5 -11 -14 -47t-9 -45q0 -4 34 -6l31 -2v7q0 6 -6 18q-7 15 -9 31zM190 634q8 2 12 2q27 0 27 -55v-16q-1 -9 -1 -22q0 -12 5 -32q8 -28 9 -47q2 -34 12.5 -44t46.5 -12q26 -2 27 -10q0 -1 0.5 -2.5t0.5 -2.5
q0 -22 -45 -28l-14 -2l2 -10q0 -2 1.5 -13t3.5 -28t4 -31l8 -60l17 1l16 2v-12q0 -11 2 -31q1 -7 1 -18q0 -19 -9 -30q-7 -7 -19 -7q-19 0 -35 16q-8 9 -25 110l-17 102l-21 1h-7q-23 0 -47 -3l-34 -4l-1 -11q-2 -11 -9 -37q-7 -25 -18 -99q-12 -92 -26 -97q-6 -2 -11 -2
q-14 0 -25.5 11t-11.5 27q0 8 13 51q8 26 32 109.5t32 109.5q6 19 16 62.5t19.5 76.5t19.5 49q5 7 17 10q8 2 16.5 13t15.5 13z" />
    <glyph glyph-name="B" unicode="B" horiz-adv-x="329" 
d="M220 390q-10 5 -22 5q-16 0 -45 -10q-26 -9 -41 -9h-10q-20 2 -27 4h-2q-3 0 -3 -54q0 -55 2 -67q4 -20 45 -53q46 -37 73 -37q11 0 14 7q8 12 21 25q16 16 20 27t9 50q4 29 4 51q0 19 -4 27q-12 22 -34 34zM177 560q-5 7 -21 7q-18 0 -42 -8q-27 -9 -31 -18.5t-5 -59.5
q0 -8 -0.5 -19.5t-0.5 -15.5l1 -15q17 0 61 19q25 11 33 25t10 47v18q0 12 -5 20zM186 640q4 3 11 3q25 0 40 -33q7 -18 7 -25q0 -9 -6 -29q-26 -97 -26 -99t16 -6q43 -10 68 -39.5t25 -68.5q0 -11 -1 -16q-7 -46 -32 -110.5t-45 -85.5q-19 -21 -42 -21q-21 0 -63 21
q-29 15 -43 20q-7 2 -10 1t-9 -8q-8 -10 -14 -10q-15 0 -41 35q-12 14 -12 23q0 1 0.5 4t0.5 5q2 18 6 29q5 16 6 147l2 131l-8 39q-6 27 -6 37q0 14 15 20q12 4 21 4q12 0 18 9q9 13 22 16.5t51 3.5q43 0 49 3z" />
    <glyph glyph-name="C" unicode="C" horiz-adv-x="332" 
d="M136 643q6 1 19 1q29 0 44 -7q13 -6 36 -26.5t29 -31.5q9 -15 9 -45q0 -10 -1 -15q-5 -24 -24 -24q-8 0 -14 6q-4 4 -15 26q-11 24 -25.5 35t-39.5 13l-17 2l-10 -17q-22 -34 -38.5 -81t-16.5 -76q0 -8 1 -11q3 -16 6 -59q5 -76 20 -107q24 -50 75 -53h11q58 0 82 53
q10 21 17 27.5t18 6.5q22 0 22 -20q0 -8 -3 -21q-8 -30 -29 -58q-27 -35 -45 -41q-24 -8 -81 -8q-44 0 -82 38q-41 41 -66 144q-9 38 -9 93q0 37 4 58q15 88 60 147q27 33 35.5 40.5t27.5 10.5z" />
    <glyph glyph-name="D" unicode="D" horiz-adv-x="285" 
d="M124 547q-26 10 -36 10q-8 0 -13 -5q-9 -9 -16 -92q-6 -60 -6 -99q0 -53 13 -115l7 -38l17 1q12 0 15 1.5t7 10.5q4 8 6.5 10t10.5 2q13 0 22 8q18 12 28 17q17 8 24 20q14 25 14 132v69l-9 17l-3.5 7l-2.5 5t-3 3.5t-2.5 2.5t-3 2.5t-4 2t-5.5 2t-6 2.5q-12 5 -12 8
q0 7 -15 7q-5 0 -27 9zM27 633q7 7 51 7h1q19 0 64.5 -20.5t72.5 -41.5q49 -36 58 -93q4 -28 4 -71q0 -46 -4 -70q-18 -94 -71 -150q-35 -37 -79 -46q-37 -8 -58 -31q-10 -12 -18 -12q-10 0 -23 18l-13 16l6 15q5 15 5 18q0 6 -3 22q-6 29 -8 67q-3 39 -3 115t3 116
q9 133 15 141z" />
    <glyph glyph-name="E" unicode="E" horiz-adv-x="334" 
d="M242 622q5 5 14 5q4 0 12 -1.5t11 -1.5q26 -4 29 -23q1 -12 -7 -21q-12 -15 -45 -21q-23 -5 -36 -11q-7 -5 -14 -1.5t-14 1.5q-4 -2 -12.5 -3.5t-14.5 -4t-9 -6.5q-8 -13 -48 -22q-13 -3 -15 -7.5t-7 -44.5q-3 -19 -6 -56q0 -3 -0.5 -8t-0.5 -7q0 -13 4 -13q3 0 7 4
q11 10 77 25.5t97 15.5q8 0 10 -1q17 -5 17 -19q0 -29 -48 -30q-17 0 -25.5 -2.5t-37.5 -16.5q-40 -19 -48 -30q-7 -10 -14 -10q-4 0 -16 5q-18 9 -19 4l6 -47q6 -56 14 -76t27 -29q14 -7 43 -7q24 0 36.5 4t33.5 19q19 13 29 15q7 1 15.5 7.5t13.5 6.5q3 0 9 -2
q16 -7 16 -20q0 -20 -31 -49q-23 -22 -57.5 -35.5t-66.5 -13.5h-6q-16 1 -48.5 9.5t-46.5 16.5q-13 7 -16.5 12.5t-3.5 19.5v9v9q0 16 -6 34q-9 24 -10.5 47t-3.5 113q-2 113 -5 115q-12 3 -7 21q2 10 2 13q0 7 -5 18q-6 18 -6 26q0 21 23 35q7 4 10 4t21 -5q19 -6 27 -6
q9 0 23 7q25 11 94 19q27 3 35 11z" />
    <glyph glyph-name="F" unicode="F" horiz-adv-x="333" 
d="M234 643q20 2 28 2q38 0 56 -20q7 -8 7 -17q0 -18 -23 -27q-16 -5 -66 -8q-49 -2 -66 -5.5t-44 -17.5q-33 -17 -37.5 -23t-6.5 -39q-1 -10 -2 -22.5t-1 -16.5t0.5 -6t1 -3.5t2.5 -2.5t3 -1t5 -1t6 -1q4 -1 16.5 -3t17.5 -3q12 -2 15 -2q6 0 20 3q9 3 38.5 5.5t39.5 6.5
l13 4l11 -11q11 -11 11 -15q0 -13 -41 -35l-30 -15l-35 -1q-6 0 -29 -1t-32 -2l-26 -3v-10q0 -18 -3 -52q-4 -36 -4 -61t7 -39t7 -43v-29l-13 -8q-15 -9 -26 -9q-10 0 -19 9q-14 14 -14 37q0 12 5 49q5 32 5 208q0 51 -1 59q-3 22 -11 29q-9 8 -10 26v9q0 10 10 25
q11 14 13 38q2 23 11 32q8 8 17 8q16 0 14 -26l-1 -17h12q14 0 45 17q43 23 104 29z" />
    <glyph glyph-name="G" unicode="G" horiz-adv-x="377" 
d="M334 381q20 0 27.5 -6t7.5 -22q0 -40 -27 -111q-19 -50 -19 -66q0 -7 8 -17q9 -12 9 -24q0 -27 -18 -47q-15 -18 -30 -18q-9 0 -15 8q-16 23 -16 57q0 20 -4 20q-2 0 -13 -11q-13 -13 -55 -23q-38 -8 -57 -8q-9 0 -12 1q-14 3 -40.5 15.5t-33.5 18.5q-18 16 -32 62
q-5 16 -5 33l2 50q4 90 18 136q21 73 74 116q33 28 96 50q18 7 39 7q17 0 22 -5q1 -1 5 -11.5t8 -12.5q3 -1 3 -3q0 -3 -38 -18q-62 -23 -90 -47.5t-48 -72.5q-30 -75 -30 -160q0 -4 0.5 -12.5t0.5 -13.5q2 -36 3 -43.5t7 -13.5q16 -16 55 -16h13q39 2 56 12t32 40
q12 23 18 28.5t17 5.5h13l7 24q7 23 7 27q0 2 -7 2q-14 0 -52 -8l-35 -7q-31 31 -31 43q0 6 12 19.5t22 18.5q15 7 30 -1q7 -4 20 -4q12 0 39 4t37 4z" />
    <glyph glyph-name="H" unicode="H" horiz-adv-x="342" 
d="M39 630q14 4 15 4q7 0 21.5 -18.5t14.5 -27.5q0 -6 -6 -22q-5 -10 -5 -24q0 -1 2 -41t2 -51v-9q-1 -3 -1 -11q0 -17 7 -24q4 -4 12 -4q13 0 47 11q41 13 55 20.5t19 20.5q7 14 7 36q0 27 -10 53q-9 25 -9 36q0 10 7 23q13 26 44 26q41 0 41 -54q0 -25 -7 -57
q-11 -55 -11 -106q0 -60 13 -139q7 -46 7 -66v-6l-2 -15l15 -11q17 -14 17 -24q0 -3 -4 -15q-13 -35 -40 -35q-1 0 -3 0.5t-3 0.5q-9 2 -18.5 13t-13.5 24q-19 63 -22 160q-2 66 -4 68t-14 -5q-32 -18 -42.5 -21t-41.5 -5q-29 -1 -37.5 -4.5t-13.5 -15.5q-4 -8 -4 -27
q0 -33 14 -92q6 -27 6 -45q0 -40 -32 -40q-13 0 -18 5.5t-8 23.5q-2 18 -14 83t-12 78q0 3 6.5 18t6.5 21q0 5 -4 8q-3 3 -6 14q-2 8 -2 12q0 6 5 26q15 62 15 122q0 31 -5 40q-4 7 -6 33q0 3 -0.5 7.5t-0.5 6.5q0 10 4 13.5t17 7.5z" />
    <glyph glyph-name="I" unicode="I" horiz-adv-x="121" 
d="M63 639q4 4 7 4q5 0 22 -14t19 -19q2 -8 2 -18q0 -22 -6 -51q-19 -103 -19 -242q0 -71 7 -107q4 -20 4 -34q0 -19 -17 -37q-13 -13 -25 -13t-26 15q-22 22 -22 46q0 5 2 13q1 4 4 14t3 11q7 25 13.5 121t6.5 177q0 28 -2 62q-1 12 -1 29q0 27 15 35q8 3 13 8z" />
    <glyph glyph-name="J" unicode="J" horiz-adv-x="287" 
d="M240 635q10 2 14.5 0.5t12.5 -10.5q12 -13 12 -30q0 -7 -7 -54q-5 -27 -6 -170q-1 -115 -4 -153t-14 -60q-11 -21 -31.5 -38.5t-36.5 -17.5q-13 0 -63 18.5t-72 31.5q-13 8 -24.5 30.5t-11.5 39.5q0 16 13 26t28 10q8 0 15 -3q20 -8 21 -34q0 -3 0.5 -7.5t1 -8t0.5 -4.5
q2 -8 29 -18.5t44 -10.5q36 0 47 57q10 52 10 172q0 113 -9 150q-6 25 -6 42q0 18 8.5 27.5t28.5 14.5z" />
    <glyph glyph-name="K" unicode="K" horiz-adv-x="379" 
d="M45 619q7 7 16 7t13 -6q11 -12 13.5 -76.5t2.5 -122.5t4 -58q5 0 27 17.5t26 23.5q26 39 48 73q40 63 49 87q14 38 31 50q7 5 14 5q6 0 16 -7q18 -14 18 -32q0 -33 -73 -124q-25 -32 -44 -57q-18 -25 -23 -28q-14 -12 -14 -25q0 -5 26.5 -30.5t40.5 -34.5t19 -14.5
t21 -30.5q29 -43 56 -53q33 -11 37 -22q1 -2 1 -7q0 -12 -14.5 -23t-32.5 -11q-16 0 -35.5 10t-23.5 20q-4 9 -34 46.5t-40 45.5q-9 7 -22 11q-35 9 -41 12.5t-23 25.5q-14 18 -17 18q-9 0 -10 -90q-1 -83 -13 -105q-11 -20 -23 -20q-10 0 -19 12q-13 14 -13 41q0 22 11 82
q14 69 14 116q0 33 -1 57q-2 86 -2 111q0 66 4 86q3 11 10 20z" />
    <glyph glyph-name="L" unicode="L" horiz-adv-x="366" 
d="M54 624q7 7 16 7q17 0 42 -19l11 -7v-32q0 -55 -22 -225q-14 -116 -14 -136l-1 -32l12 -4q16 -6 60 -6q39 0 75 4q56 5 61 7q7 2 21 20q16 18 20 18q6 0 15 -9q8 -9 8 -25q0 -21 -15 -39q-4 -6 -6 -13t-6 -10t-16 -7q-21 -6 -77 -6q-20 0 -58 2l-35 3q-24 -14 -37 -20
l-7 8q-7 7 -16 7q-3 0 -11.5 -1.5t-13.5 -1.5q-2 0 -5.5 -0.5t-4.5 -0.5q-18 0 -32 29l-9 18l14 69q14 66 15 109q1 23 11 88q9 61 9 88q0 20 -5 43q-7 26 -7 47t8 27z" />
    <glyph glyph-name="M" unicode="M" horiz-adv-x="502" 
d="M384 596q1 2 2 5.5t1.5 4.5t1.5 3.5t1.5 3.5t2 2.5t3 2t3.5 1.5t4.5 1h5.5q13 0 23 -9q20 -19 20 -67v-13q0 -34 -2 -134v-25q0 -132 8 -162q1 -6 14 -2q11 3 15 -2q7 -11 7 -35q0 -2 -0.5 -6t-0.5 -6q-8 -60 -35 -60q-15 0 -36 26l-14 17l-2 30q0 8 -1 17.5t-2.5 19.5
t-1.5 13q-2 10 -4 144q-1 125 -5 125q-5 0 -21 -38.5t-33.5 -86.5t-21.5 -56q-30 -65 -74 -65q-12 0 -18 8q-6 9 -16 9q-8 0 -8.5 1t-0.5 6q0 12 -31.5 88.5t-38.5 80.5h-1q-5 0 -14 -107q-10 -125 -25 -181q-10 -40 -24 -54q-7 -8 -18 -8q-15 0 -26.5 15.5t-11.5 37.5
q0 11 3 16t21 19q8 7 11 24t10 94q10 126 21 181q3 13 3 29q0 3 -0.5 9.5t-0.5 10.5v14q0 33 17 40q9 3 12 -3q2 -3 14.5 -11.5t13.5 -14.5q6 -19 17 -19q12 0 22.5 -20.5t25.5 -72.5q17 -59 28 -72q1 -1 9 -13.5t14 -13.5h1q5 0 28 48l3 6t3 5.5t3 6.5q57 117 76 150
q16 30 20 42z" />
    <glyph glyph-name="N" unicode="N" horiz-adv-x="407" 
d="M353 622q10 8 14 8q19 0 28 -19q4 -7 4 -18q0 -20 -16 -53q-14 -31 -18 -53.5t-5 -73.5q-1 -65 -11 -126t-14 -111q-4 -42 -8 -47q-14 -16 -40 -16q-9 0 -13 3q-5 3 -7 16q-2 15 -32 75q-23 46 -28.5 55t-14.5 13q-13 6 -13 8q-2 0 -6.5 22t-14 55t-21.5 53
q-17 28 -18 28q-8 0 -10.5 -14.5t-8.5 -87.5q-5 -62 -24 -172q-5 -32 -16 -53q-11 -19 -16 -19q-14 0 -27 27l-8 16l6 55q6 59 9.5 74t11.5 25q10 13 12.5 36t2.5 92q0 81 -6 91q-6 9 -7 33v23l11 10q13 12 37 12q36 0 36 -27q0 -13 9 -21q14 -13 55 -107q48 -107 71 -142
q12 -17 16 -32q5 -19 12 -19q1 0 2 2q8 24 16 145q1 12 3.5 58t4.5 62t8.5 44.5t17.5 49.5q8 13 16 20z" />
    <glyph glyph-name="O" unicode="O" horiz-adv-x="354" 
d="M209 547q-12 6 -19 6q-6 0 -20 -9q-7 -6 -31 -11q-23 -6 -34 -18q-24 -27 -39 -71q-8 -24 -8 -68q0 -56 22 -124q9 -28 24 -44q40 -43 76 -43q4 0 12 2q18 6 45.5 37.5t41.5 61.5q16 35 16 81q0 4 -0.5 13t-0.5 14q-3 59 -26 106q-27 52 -59 67zM91 603q31 31 38 31
q10 0 21 -7t16 -15t11 -10.5t32 -3.5q27 -1 43 -10q29 -16 42.5 -36t30.5 -70q14 -43 17.5 -65.5t3.5 -68.5q0 -51 -7 -78q-13 -48 -36 -85q-9 -14 -17.5 -21.5t-38.5 -28.5l-44 -29l-32 -3q-20 -2 -25 -2q-22 0 -51 23q-25 19 -37.5 37.5t-24.5 53.5q-24 73 -24 158
q0 26 1 40q4 71 19 106t62 84z" />
    <glyph glyph-name="P" unicode="P" horiz-adv-x="287" 
d="M204 561q-17 12 -33 12q-30 0 -42 -25q-5 -11 -25 -26q-18 -13 -20 -24q-1 -4 -1 -25q0 -97 6 -97q9 0 44 8.5t43 12.5q40 20 53 86q3 20 3 31q0 27 -28 47zM134 611q40 8 57 8q19 0 39 -10q26 -14 40 -44q9 -20 9 -51q0 -77 -36 -140q-9 -17 -22.5 -25t-47.5 -17
q-32 -8 -45 -15q-12 -5 -15 -5q-5 0 -15 6q-11 6 -13 4q-2 -3 -7.5 -48t-6.5 -77q-1 -12 -1 -26q0 -9 1 -11t5.5 -4t9.5 -8q5 -7 1 -20q-4 -17 -17 -30t-32 -13h-4q-11 1 -15.5 2.5t-7 7.5t-2.5 19q0 3 0.5 12t0.5 16q1 21 9 127.5t8 136.5v18q0 21 -8 45t-8 42l-1 17l18 6
l18 5l2 16q2 17 7 24q15 19 79 32z" />
    <glyph glyph-name="Q" unicode="Q" horiz-adv-x="425" 
d="M241 542q-37 28 -63 28q-10 0 -11.5 -1t0.5 -8q0 -1 1 -3v-2q0 -5 -5.5 -8.5t-26.5 -14.5q-26 -14 -36.5 -25.5t-16.5 -33.5q-13 -49 -17 -99q-1 -13 -1 -39q0 -118 35 -156q16 -17 35 -17q26 0 54 28q29 30 29 39q0 3 -1 5q-6 12 -21 30q-21 26 -21 39q0 6 5 18
q11 23 31 23q11 0 20 -9q6 -6 3 -6q-1 0 -1 -1q0 -4 9 -18t13 -16q1 0 1 -0.5t1 -0.5q9 0 18.5 30t12.5 54q2 18 2 28q0 33 -7.5 59.5t-17.5 29.5q-7 2 -7 18q0 11 -2.5 15t-14.5 14zM160 647q9 6 20 6t29 -6q19 -6 26 -17t15 -17q24 -18 60 -84q32 -60 32 -123t-19 -108
q-13 -29 -13 -41q0 -9 12 -32q12 -25 18 -30.5t32 -14.5q24 -9 26 -15t10 -14q9 -9 9 -16t-9 -16t-17 -9t-20 6q-16 7 -44.5 26.5t-42.5 31.5q-16 16 -21 16t-16 -17q-15 -24 -51.5 -47t-72.5 -23q-20 0 -35 7q-79 37 -79 216v28q3 146 36 194q8 12 29.5 25.5t41.5 19.5
l23 7l2 15q4 23 19 32z" />
    <glyph glyph-name="R" unicode="R" horiz-adv-x="357" 
d="M185 552q-12 6 -30 6q-30 0 -57 -12q-9 -8 -10 -11q0 -2 0.5 -5.5t1.5 -10t2 -11.5q4 -24 4 -94v-67h7q10 0 48.5 55t49.5 84q5 13 5 25q0 30 -21 41zM57 609q11 14 15 14q2 0 16 -8l12 -7l28 5q20 3 40 3q55 0 74 -19q13 -15 17 -41q1 -6 1 -20q0 -30 -8.5 -65
t-18.5 -49q-4 -5 -28 -32q-42 -45 -42 -56q0 -8 8 -12q8 -3 25 -24q13 -16 73 -74q80 -77 80 -96q0 -4 -8 -10q-7 -4 -23 -1q-24 6 -60 39q-18 16 -43 36q-27 22 -30 30t-25.5 30.5t-32.5 27.5q-4 2 -6 2q-20 0 -20 -64q0 -32 6 -60q7 -31 7 -42q0 -14 -8 -22q-7 -6 -20 -6
q-20 0 -23 12q-11 42 -11 60q0 70 -7 70q-2 0 -10 -6q-8 -5 -12 -5q-10 0 -13 25q-1 6 -0.5 10t2.5 7t8 8q13 11 19 14q7 3 9 28q1 8 1 31q0 63 -5 105q-2 10 -8 28.5t-6 28.5q0 13 10 29q9 14 9 23t-1 16q-1 6 -1 14q0 9 10 23z" />
    <glyph glyph-name="S" unicode="S" horiz-adv-x="287" 
d="M130 631q4 1 11 1q11 0 38 -6q30 -7 39.5 -12t24.5 -21q28 -29 28 -50q0 -20 -32 -21h-12q-8 0 -11 2.5t-13 14.5q-21 26 -54 26q-25 0 -40.5 -16t-17.5 -44v-10q0 -40 42 -64q64 -39 109 -84q37 -37 37 -75q0 -15 -11.5 -52t-18.5 -45q-1 -1 -21 -26q-23 -30 -38 -40
t-39 -10q-30 0 -47 21q-4 6 -22.5 19.5t-39.5 27.5t-25 17q-6 6 -7 11t-1 28t1 27t7 6q8 3 13 3q18 0 31 -29q9 -17 31 -37q33 -29 45 -29q2 0 12 2q19 5 29 13t22 31q21 36 21 54q0 5 -1 8q-4 25 -43 59q-44 38 -81 56q-20 9 -29 18t-18 29q-16 35 -16 69q0 16 2 24
q8 35 36.5 66t58.5 38z" />
    <glyph glyph-name="T" unicode="T" horiz-adv-x="338" 
d="M253 625q29 6 41 6q13 0 29 -14q8 -8 8 -15q0 -15 -32 -38q-10 -8 -20 -4q-7 3 -20 3h-12q-16 -1 -20 -2.5t-4 -6.5t-6 -31q-5 -21 -9 -115q-4 -118 -11 -157q-1 -4 -1 -11q0 -21 7 -21q10 0 10 -64q0 -31 -5 -43q-7 -13 -19 -13q-7 0 -19 3q-14 4 -17.5 6t-4.5 8
q-2 8 -5 10q-4 3 -4 13t3 25q3 22 5.5 90.5t4.5 92.5q6 60 6 125v72l-18 -2q-54 -4 -70 -14q-10 -6 -23 -6q-16 0 -27 9.5t-11 22.5q0 11 6 22.5t11 13.5q3 1 51 5q46 4 49 8q3 6 37 8q43 3 46 12q1 4 8 -1q4 -2 7 -2q2 0 29 5z" />
    <glyph glyph-name="U" unicode="U" horiz-adv-x="354" 
d="M291 638q12 5 24 5q11 0 19 -8q12 -12 12 -75q0 -7 -0.5 -25.5t-0.5 -30.5q-2 -104 -24 -209q-22 -102 -40 -126q-12 -17 -46 -39t-60 -22q-24 0 -53 11t-48 28q-11 9 -16 31q-2 10 -7 28t-6 24t-4 19.5t-4 21.5t-2.5 22.5t-2 30.5t-1.5 37.5t-2 50.5q-3 128 -14 151
l-6 13q12 16 21 23q21 18 31 18q9 0 22 -12q16 -16 16 -24q0 -6 -8 -28l-11 -28v-64q0 -67 6.5 -136t14.5 -90t26.5 -36.5t41.5 -15.5q15 0 30 7q59 27 76 157q3 28 7 113l4 81l-12 13q-18 19 -18 40q0 32 35 44z" />
    <glyph glyph-name="V" unicode="V" horiz-adv-x="357" 
d="M304 634q8 6 18 6q27 0 27 -31q0 -13 -2 -21q-5 -22 -20 -39q-14 -17 -21.5 -35.5t-22.5 -76.5q-13 -55 -35 -114q-33 -93 -33 -127v-6v-29q0 -22 -5 -32q-12 -22 -40 -22q-12 0 -23 4.5t-11 9.5q0 4 -4 12q-3 6 -3 20v12q0 3 0.5 7t0.5 6q0 16 -20 93q-46 182 -66 232
q-10 23 -21 41q-14 25 -14 37q0 5 3 13q4 9 15 21.5t15 12.5t14 -13t18 -29q13 -29 35.5 -106.5t33.5 -132.5q15 -70 23 -77q6 -6 8 -3q2 2 44.5 125.5t58.5 175.5q18 59 27 66z" />
    <glyph glyph-name="W" unicode="W" horiz-adv-x="477" 
d="M422 635q8 5 12 5q10 0 23 -26q11 -23 11 -35v-12q-3 -43 -30.5 -183.5t-43.5 -190.5q-8 -26 -11 -46q-2 -17 -20 -28t-35 -11q-8 0 -13.5 4t-21.5 24q-59 72 -81 131q-5 14 -13 27q-5 8 -14 8q-15 0 -15 -20q0 -7 -15 -54t-24 -68q-3 -8 -23 -28q-17 -17 -25 -17
q-7 0 -20 10q-10 7 -18 26q-7 17 -9 94q-5 157 -23 270q-4 21 -4 36q0 8 1 11q0 3 1 6.5t1 5.5l1 3q0 4 10 14q10 11 21 11q19 0 33 -16.5t14 -36.5q0 -13 -7 -24q-5 -9 -6 -19t-1 -59q0 -31 7 -185q3 -40 6 -40q4 0 6 5q0 1 4 10t11 26t13 31q26 60 32 90q8 45 21 56
q9 9 30 9q10 0 14 -2q23 -8 27 -65q2 -34 15 -71q22 -66 34 -71q6 -2 6 -15q0 -11 6 -19t14 -8q5 0 10 5q18 20 55 205q19 90 19 134q0 26 -1 43v12q0 28 16 38z" />
    <glyph glyph-name="X" unicode="X" horiz-adv-x="370" 
d="M306 620q13 5 26 5q10 0 16 -3q5 -2 9.5 -11.5t4.5 -17.5q0 -1 -0.5 -2.5t-0.5 -2.5q-3 -13 -34 -35q-21 -15 -62 -77q-20 -31 -40.5 -72t-20.5 -50q0 -4 47 -83q31 -54 40 -66.5t17 -16.5q27 -13 27 -43q0 -10 -3 -19q-7 -21 -26 -30q-10 -4 -20 3q-19 13 -48 56
q-38 56 -62 111q-6 17 -10 17t-18 -29q-40 -86 -57 -113.5t-35 -36.5q-14 -7 -22 -7t-15 9q-10 13 -10 26q0 17 20 43q62 77 91 132q17 32 17 47q-2 41 -31 107q-40 89 -41 102q-1 5 -1 12q0 30 30 30h4q22 -1 35 -19q4 -5 4 -32q0 -22 13 -62q18 -55 27 -55q3 0 3 4
q0 5 9 10q9 7 32 55q46 96 85 114z" />
    <glyph glyph-name="Y" unicode="Y" horiz-adv-x="317" 
d="M260 618q7 4 18 4q10 0 15 -2q16 -6 16 -37q0 -5 -0.5 -9t-0.5 -7.5t-2 -9t-3.5 -10.5t-5.5 -15t-7.5 -19t-10.5 -27.5t-13 -34.5q-41 -107 -86 -202q-19 -41 -19 -52q0 -6 5 -18l6 -12l-3 -3t-2.5 -3t-2 -2.5t-2 -2.5l-1.5 -3t-1 -3.5t-1 -4.5t-1 -6.5t-1 -7.5
q-3 -36 -19 -39q-11 -3 -13 -4q-3 -2 -11 -2q-16 0 -32.5 12t-16.5 25q0 9 13 28q16 22 43.5 83.5t27.5 72.5q0 6 -3.5 9t-15.5 7q-12 3 -19 13q-10 14 -47 90.5t-46 101.5q-9 28 -9 32q0 3 1 5.5t3.5 6.5t4.5 10q4 10 12 19q7 7 19 6q15 -2 19.5 -10t5.5 -37q2 -37 12 -63
t40 -73q5 -9 13 -21.5t9 -13.5q6 -9 15 -10t18 15q8 12 22 47q3 8 8 19t10 23t7 16q10 23 14 60q4 49 18 59z" />
    <glyph glyph-name="Z" unicode="Z" horiz-adv-x="363" 
d="M289 618q0 9 20 -11q12 -12 12 -25q0 -16 -30 -58q-44 -58 -113 -208q-11 -25 -37 -65q-38 -58 -38 -72q0 -5 4 -9t30 -4q21 0 48 3q60 6 106 19q31 9 37 9t13 -7q14 -14 14 -35q0 -16 -9 -25q-7 -7 -20 -7q-7 0 -10 2q-1 0 -4 0.5t-8 0.5h-11t-22 -0.5t-26 -0.5
q-100 -4 -153 -26q-23 -10 -38 -10q-13 0 -24 8q-21 14 -21 41q0 35 20 48q42 29 143 229q37 75 49 93q18 30 18 40q0 7 -8 7q-2 0 -10 -2q-5 -2 -15 -2q-14 0 -25 2q-18 2 -22 2q-6 0 -24 -4q-50 -13 -87 -13q-23 0 -23 21v6q1 13 10.5 24t21.5 13q29 5 91 9q90 7 105 7
q7 0 21 -2q15 -2 15 2z" />
    <glyph glyph-name="a" unicode="a" horiz-adv-x="361" 
d="M145 366q-5 10 -13 10q-6 0 -14 -9q-19 -22 -32 -68t-13 -88q0 -27 11 -27h2q2 1 3 1q20 5 36 48q4 11 10 23.5t8 18.5t4 18.5t2 31.5q0 34 -4 41zM68 409q8 33 54 33h8q49 -3 82 -58q18 -29 22.5 -41t4.5 -30q0 -27 9.5 -62t20.5 -48q10 -10 10 -13q0 -2 10 -6
q3 -1 9 -1q12 0 27 8q7 4 14 4q14 0 14 -20q0 -10 -8 -23.5t-17 -20.5q-11 -8 -35 -8q-12 0 -17 2q-23 7 -42.5 29t-27.5 48q-14 45 -18 45q-3 0 -26 -64q-13 -36 -47 -57q-23 -15 -38 -15q-4 0 -20 4q-18 5 -25 11t-15 22q-8 18 -8 43q0 47 39 157q17 49 20 61z" />
    <glyph glyph-name="b" unicode="b" horiz-adv-x="253" 
d="M184 368q-5 5 -10 5q-7 0 -22.5 -10t-25.5 -21q-13 -14 -23 -44q-16 -50 -16 -82q0 -2 0.5 -4.5t0.5 -3.5q1 -2 6.5 -15.5t5.5 -21.5q0 -7 1 -9t7 -2q9 0 18 11q11 12 32 61q34 77 34 91q0 2 -0.5 7t-0.5 8q-1 25 -7 30zM21 616q6 4 19 4q11 0 17 -3q14 -5 20 -28
q3 -20 5 -108q2 -96 4 -98q2 -3 26 21q30 29 57 29h11q21 -1 32 -11q33 -32 33 -97q0 -60 -29 -123q-17 -36 -45.5 -71t-43.5 -38q-3 -1 -11 -1q-38 0 -70 32q-22 22 -22 51q0 12 -4 26q-4 11 -4 23t4 25q10 38 10 150q0 27 -2 95q-2 54 -6 61q-2 2 -4 6q-9 13 -9 28
q0 18 12 27z" />
    <glyph glyph-name="c" unicode="c" horiz-adv-x="270" 
d="M106 453q24 4 27 4h2q13 0 28 -15q6 -6 21.5 -13.5t19.5 -10.5q20 -20 20 -50q0 -8 -1 -12q-3 -11 -13 -20.5t-19 -9.5q-6 0 -14.5 7.5t-36.5 38.5q-13 13 -21 13q-12 0 -20 -23q-5 -15 -13 -29q-21 -31 -21 -84q0 -34 13.5 -50t43.5 -18h9q53 0 85 53q11 19 17 20
q15 5 26 -11q4 -7 1 -24q-8 -44 -39 -73q-34 -31 -100 -31q-36 0 -50 7q-62 32 -62 124q0 47 23 120q11 36 40 69q13 14 34 18z" />
    <glyph glyph-name="d" unicode="d" horiz-adv-x="337" 
d="M169 318q-14 31 -40 31q-8 0 -21 -8.5t-17 -16.5q-21 -44 -21 -107q0 -15 3 -23t12 -6q17 3 35.5 20.5t30.5 41.5q6 14 16 24q10 12 10 19t-8 25zM197 606q11 21 28 21q22 0 33 -30q5 -13 5 -44q0 -39 -7 -92q-7 -51 -7 -128q0 -59 3 -81t16 -51l6 -15l20 2q2 0 6 0.5
t5 0.5q9 0 13 -4t8 -17q3 -12 3 -24q0 -33 -17 -41q-6 -3 -14 -3q-26 0 -53 30t-37 72q-5 20 -8 20t-24 -32q-22 -33 -40.5 -48t-44.5 -23q-13 -4 -27 -4q-27 0 -42 17q-13 16 -13 63q0 41 10 82q15 65 34 88q22 26 57 41q15 7 28 7q10 0 18 -4q15 -5 22 -4l13 1l1 47
q2 44 4 49q2 4 -3 17q-4 12 -4 35q0 34 8 52z" />
    <glyph glyph-name="e" unicode="e" horiz-adv-x="309" 
d="M175 386q0 7 -2 7q-3 0 -12.5 -11.5t-10.5 -16.5q-2 -8 0 -8q4 1 13 10q12 12 12 19zM117 424q10 12 33 23.5t45 11.5q14 0 26 -6q26 -14 26 -39q0 -11 -6 -26q-23 -57 -92 -109l-28 -21l1 -26q1 -26 3 -34t12 -19q12 -13 26 -13q40 0 84 52q24 30 38 30q7 0 11 -6
q5 -7 5 -16q0 -11 -7 -27q-6 -12 -33 -39t-41 -35q-23 -13 -59 -13q-25 0 -40 7q-26 11 -41 38q-8 14 -11 42l-3 30l-17 -1h-3q-37 0 -37 27q0 11 35 27q18 8 22.5 14t6.5 26q3 22 17 54.5t27 47.5z" />
    <glyph glyph-name="f" unicode="f" horiz-adv-x="278" 
d="M99 631q29 8 43 8q29 0 48 -38q22 -46 22 -72q0 -6 -17 -27l-15 -18l-14 8q-14 8 -14 20q0 7 3 25q2 14 2 17q0 16 -20 16q-26 0 -46 -21l-13 -13l-2 -30q-3 -36 -3 -74q0 -34 3 -44q4 -15 11 -16q1 0 3 -0.5t4 -0.5q15 0 58 12q47 13 89 13q18 0 24 -3t6 -9
q0 -9 -11 -18q-16 -16 -104 -40q-59 -16 -66 -24q-5 -5 -5 -20q0 -17 5 -32q18 -57 18 -92q0 -20 -8.5 -33.5t-21.5 -13.5q-9 0 -21 13q-11 11 -13.5 23t-7.5 79l-4 60l-12 16q-11 16 -11 24t9 30q8 17 8 26q0 5 -1 8q-2 16 -2 36q0 93 11 141q9 40 25 50q13 6 40 14z" />
    <glyph glyph-name="g" unicode="g" horiz-adv-x="243" 
d="M164 339l-2 34h-15q-19 0 -40.5 -13.5t-30.5 -30.5q-4 -8 -9 -37t-5 -41q0 -17 27 -22q1 0 3.5 -0.5t3.5 -0.5q21 0 42.5 20.5t25.5 46.5q0 1 0.5 6.5t0.5 10.5q0 4 -0.5 13t-0.5 14zM111 437q14 2 18 2q11 0 27 -3q26 -4 41 -16.5t15 -28.5q0 -8 7 -12q15 -7 15 -45
q0 -16 -3 -40q-4 -35 -4 -144q0 -142 -8.5 -195t-35.5 -83q-20 -22 -46 -27h-3q-26 0 -58 29q-2 2 -13 11t-14.5 12.5t-10 12t-10 17t-4.5 19.5v7q0 21 18 21q21 0 34 -22q31 -47 51 -47q24 0 34 20q21 39 21 160q0 7 -0.5 24t-0.5 26l-2 83l-19 -22q-36 -41 -78 -41
q-23 0 -34 5q-13 6 -24 18t-13 22q-2 12 -2 28q0 27 3 57q2 26 18 60q24 48 41 68t40 24z" />
    <glyph glyph-name="h" unicode="h" horiz-adv-x="337" 
d="M26 636q6 6 15 6t23 -9q22 -15 22 -37q0 -11 -7 -39q-5 -19 -6 -37.5t-1 -105.5q0 -116 4 -116t27 42q21 40 30 49q7 8 24.5 16t28.5 8q15 0 24 -8t20 -31q10 -20 26.5 -75t19.5 -76q5 -34 18 -38q6 -2 17 -2q18 -2 18 -16q0 -5 -3 -11q-6 -14 -20 -26.5t-25 -12.5
q-16 0 -34 18q-24 27 -44 128q-7 33 -12 45t-16 18q-8 4 -13 -1q-8 -8 -34 -60q-28 -56 -35 -86q-15 -64 -33 -64q-9 0 -25 16q-17 18 -17 38v7q3 30 3 87q0 102 -9 243q-3 40 -3 65q0 51 17 65z" />
    <glyph glyph-name="i" unicode="i" horiz-adv-x="101" 
d="M35 438q15 7 28 0q19 -10 19 -46q0 -16 -5 -44q-5 -30 -5 -65v-23l2 -60l9 -24q10 -23 10 -43q0 -21 -14 -26q-3 -1 -9 -1q-17 0 -31 18q-17 19 -19.5 34t-3.5 107q-1 114 -5 122q-2 8 -2 12q0 26 26 39z" />
    <glyph glyph-name="j" unicode="j" horiz-adv-x="241" 
d="M162 376q8 5 16 5t16 -4q15 -5 15 -35q0 -19 -1 -32q-3 -48 -3 -82q0 -60 12 -133q17 -110 17 -149q0 -38 -12 -68q-8 -22 -15.5 -29t-24.5 -7h-10q-25 2 -39 10.5t-35 36.5q-6 8 -40 42.5t-40 44.5q-9 17 -9 31q0 19 12.5 31t33.5 12q14 0 22 -9l9 -9l-2 -26
q0 -4 -0.5 -9.5t-0.5 -7.5q0 -11 4 -16q10 -13 36 -35q30 -26 35 -26h2q9 5 15 42q2 15 -4 24q-6 8 -2 29q2 8 2 29q0 42 -13 132q-14 106 -14 146q0 52 18 62z" />
    <glyph glyph-name="k" unicode="k" horiz-adv-x="351" 
d="M23 590q14 12 22 12t13 -5q8 -6 12 -6q5 0 11 -6q5 -5 5 -43q0 -50 -1 -66q-1 -17 -1 -67q0 -89 3 -98l2 -5q3 0 22 25q25 34 27 39q2 7 22.5 38.5t22.5 40.5q8 27 37 28q18 1 26 -7q7 -7 6 -23q-3 -33 -34 -67q-6 -7 -23.5 -28t-30.5 -35q-18 -20 -18 -23q0 -13 34 -29
q23 -11 26 -16q2 -4 9 -5q6 -2 38 -23t37 -23q54 -14 54 -34q0 -14 -33 -23q-16 -4 -21 -4q-17 0 -83 41q-10 7 -32 14.5t-31 15.5q-12 10 -22 15q-12 6 -16 10q-5 6 -8 6q-5 0 -5 -27q0 -38 -9 -74.5t-26 -36.5q-8 0 -18 11q-11 12 -11 23l-1 29v75.5v91.5l-1 183
q-3 11 -9 32.5t-9 31.5z" />
    <glyph glyph-name="l" unicode="l" horiz-adv-x="138" 
d="M21 614q7 3 13 3t18 -3q13 -3 18 -7.5t5 -15.5q0 -3 -2 -17q-3 -18 -3 -97q0 -81 -3 -117q-3 -42 -3 -95t3 -71t9 -24q7 -7 12 -7q2 0 9 3t13 3q20 0 20 -22v-7q-4 -42 -42 -42q-29 0 -57 25q-14 13 -18 29q-4 20 -4 23q0 8 4 10q3 1 3 52q0 9 -0.5 42t-0.5 58
q0 144 -4 204q-1 17 -1 40q0 27 11 33z" />
    <glyph glyph-name="m" unicode="m" horiz-adv-x="524" 
d="M50 435q18 6 25 6q8 0 18 -10q11 -11 11 -24q0 -14 -8 -38q-11 -36 -11 -43q0 -2 1 -2h1q3 1 7 12q5 11 29 35.5t37 31.5q14 8 29 7q37 -4 46 -63q5 -38 15 -38q2 0 28 28q40 44 57.5 57t38.5 14h4q22 0 34 -26q15 -29 20 -85q11 -110 32 -120q5 -2 19 2q7 3 14 3
q11 0 17 -10q2 -4 2 -8q0 -17 -20 -42q-11 -14 -28 -14q-5 0 -21 4q-34 10 -50.5 46.5t-21.5 113.5q-4 64 -16 68h-3q-16 0 -35 -26q-31 -40 -58 -119q-14 -43 -28 -43q-5 0 -15 8l-9 8l4 29q2 20 2 28q0 36 -17 72q-19 40 -30 40h-3q-13 -2 -32 -20.5t-35 -43.5
q-7 -10 -9 -23t-4 -54q-1 -15 -1 -34q0 -18 3 -25q2 -3 2 -9q0 -18 -25 -31q-9 -5 -21 -5q-21 0 -31 17q-5 10 -5 15q0 8 9 20q8 11 10.5 26t7.5 95q3 49 3 76q0 33 -6 62q-1 3 -1.5 6t-1 5l-1 4t-0.5 3q0 7 13 11q1 1 4 2z" />
    <glyph glyph-name="n" unicode="n" horiz-adv-x="309" 
d="M183 431q15 11 30 11q18 0 30 -21q5 -8 5 -37q0 -34 -5 -69q-6 -44 -6 -72q0 -85 49 -85q13 0 14 -9q1 -2 1 -7q0 -20 -14 -27q-13 -7 -27 -7q-38 0 -57 42q-13 32 -15 89q0 2 1 19.5t1.5 40.5t0.5 38q0 25 -2 25q-1 0 -1 0.5t-1 0.5q-7 0 -22.5 -10.5t-27.5 -24.5
q-46 -50 -59 -92q-8 -32 -9 -59q-3 -53 -11 -57q-5 -3 -25 -3q-14 0 -17 1t-5 7t-2 12q0 11 9 87q4 32 4 50q0 8 -2 26q-3 21 -3 38q0 30 23 46q9 6 16 6q15 0 25 -28q6 -21 7 -21q2 0 39 39q39 41 56 51z" />
    <glyph glyph-name="o" unicode="o" horiz-adv-x="260" 
d="M199 298q5 22 5 36q0 45 -35 45q-15 0 -35 -10q-38 -18 -56.5 -43t-22.5 -63q0 -1 -0.5 -4.5t-0.5 -4.5q0 -30 18.5 -54.5t42.5 -24.5q9 0 29 20q40 40 55 103zM136 434q18 2 26 2q64 0 84 -47q6 -12 6 -45q0 -39 -20 -107q-8 -25 -10.5 -31t-9.5 -10q-8 -5 -18 -24
q-13 -26 -28.5 -37t-43.5 -16q-12 -2 -19 -2q-34 0 -57 20t-32 50q-5 18 -5 55q0 34 5 62q11 62 25 80q5 7 25 14q21 7 32 17q19 15 40 19z" />
    <glyph glyph-name="p" unicode="p" horiz-adv-x="278" 
d="M187 355q-12 3 -28 3q-46 0 -56 -13q-4 -6 -11 -50t-9 -79l-2 -29l10 1q35 6 46 10t23 16q49 46 49 102q0 33 -22 39zM80 408q11 2 59 2q47 0 56 -2q25 -5 53 -31q7 -6 14 -34t7 -46v-7q-4 -25 -32 -68.5t-49 -57.5q-10 -7 -55 -22q-42 -13 -46 -22q-2 -5 -2 -89l1 -81
l-11 -26q-10 -23 -10 -36q2 -20 -28 -29q-7 -3 -13 -3q-10 0 -13 36v18q0 23 5 53q13 74 13 142q0 34 6 90q7 52 7 90q0 15 -2 27q-3 12 -10 13q-21 6 -21 25q0 20 20 38q16 15 51 20z" />
    <glyph glyph-name="q" unicode="q" horiz-adv-x="293" 
d="M161 372q-5 3 -10.5 8.5t-9.5 5.5q-6 0 -18 -9q-35 -25 -45 -46q-20 -38 -20 -85v-14q0 -12 6 -18q7 -7 18 -6q32 5 59 34q31 35 31 82q0 2 -0.5 7t-0.5 8q-1 26 -10 33zM116 441q11 4 26 4q39 0 54 -17q6 -6 14 -12q12 -8 27 -80q7 -32 7 -67t-11 -106q-14 -84 -14 -127
q0 -3 0.5 -10.5t0.5 -11.5q2 -50 16 -61q10 -8 15 -3q4 4 13 4q15 0 19 -6q2 -3 2 -12q0 -15 -5 -21q-7 -12 -20.5 -20.5t-24.5 -8.5q-4 0 -6 1q-1 1 -14 4q-5 1 -11 9.5t-12 21t-7 14.5q-6 9 -9 30q-3 16 -3 51q0 61 9 136q9 77 9 83t-2 6q-5 0 -27 -31q-11 -16 -31 -34
t-36 -26t-22 -8q-4 0 -29 5q-15 2 -27 21q-8 12 -8 42q0 35 11 82.5t27 80.5q10 22 29.5 40.5t39.5 26.5z" />
    <glyph glyph-name="r" unicode="r" horiz-adv-x="276" 
d="M242 378q18 0 22 -3t4 -19q0 -27 -15 -27q-7 0 -12 -3q-3 -2 -10 -2q-13 0 -33 18q-17 16 -31 16q-41 0 -60.5 -35.5t-19.5 -88.5q0 -25 5 -55q4 -21 4 -34q0 -10 -6 -19q-11 -18 -41 -18q-12 0 -17 5q-6 5 -14.5 22.5t-8.5 24.5q0 4 6 20q7 15 7 94v81q13 13 20 13
q6 0 20 -3h2q7 0 22 19q15 21 37 35q23 15 28 15q6 0 24.5 -8.5t28.5 -15.5q9 -6 15 -19l5 -13h18z" />
    <glyph glyph-name="s" unicode="s" horiz-adv-x="249" 
d="M202 188q0 -33 -17.5 -58t-42.5 -25q-11 0 -37 13q-36 17 -50 20q-40 10 -44 21q-2 6 -2 14q0 15 3 19q5 10 27 10h6q6 -1 38.5 -14.5t38.5 -14.5l12 -2v12q0 29 -44 71q-25 24 -31 42q-6 21 -6 40q0 36 21 61t53 34q6 2 25 2q35 0 48 -7q35 -18 41 -72q0 -2 0.5 -5
t0.5 -4q0 -13 -17 -13q-21 0 -35 27q-7 15 -10.5 17t-23.5 2q-34 0 -47 -20q-6 -9 -6 -19q0 -23 50 -70q33 -31 41 -44t8 -37z" />
    <glyph glyph-name="t" unicode="t" horiz-adv-x="298" 
d="M163 569q9 10 18 10q6 0 13 -4q13 -7 13 -24t-4 -48q-6 -53 -6 -64q0 -8 2 -10h2q8 0 33 5t32 5q14 0 21 -18q5 -12 3 -17q-2 -4 -32 -15q-34 -12 -52 -18l-22 -8l-2 -19q-2 -20 -9 -56q-9 -46 -9 -67q0 -10 2 -24q4 -17 8.5 -22.5t17.5 -5.5q14 0 29 10q16 10 22 10
t12 -6q7 -7 7 -15q0 -14 -23 -34q-30 -27 -66 -27q-39 0 -54 23q-17 24 -17 83q0 27 3 67q2 34 2 43v7q-1 8 -11 8q-11 0 -24 -10q-21 -16 -33 -16q-19 0 -27 14q-3 6 -3 16q0 14 4 27t10 14q4 1 47 7q35 4 48 9q9 3 20 72q6 43 15 80q2 9 10 18z" />
    <glyph glyph-name="u" unicode="u" horiz-adv-x="283" 
d="M226 454q6 5 16 5q21 0 29 -19q3 -6 3 -11q0 -8 -16 -101q-22 -122 -35 -150q-2 -6 -5.5 -11t-8 -9.5t-7.5 -8t-9.5 -7.5t-10 -6t-11.5 -6t-11 -5t-12.5 -5t-11.5 -5q-21 -10 -39 -10q-15 0 -25 6q-25 13 -44 66t-19 107q0 11 2 29q13 89 21 102q5 7 18 7q37 0 37 -29
q0 -9 -5 -22q-3 -9 -3 -35q0 -5 0.5 -20.5t0.5 -26.5q1 -72 6 -83q11 -25 35 -25q11 0 23 6q29 15 44 67q7 25 17.5 83.5t11.5 82.5q2 28 9 34z" />
    <glyph glyph-name="v" unicode="v" horiz-adv-x="281" 
d="M221 447q1 1 21 7t22 6q1 0 3.5 -6t4 -14.5t1.5 -16.5q0 -17 -10 -41t-44 -94q-43 -86 -46 -100q-3 -16 3 -29q5 -10 5 -22q0 -20 -16 -34.5t-36 -14.5q-2 0 -4.5 0.5t-3.5 0.5q-8 1 -18.5 10.5t-13.5 17.5q-5 20 -6 34q-4 44 -34 108t-37 116q-3 24 -3 36q0 18 12 29
q15 14 35 14q10 0 13 -7q6 -25 17 -80q25 -125 37 -134q1 -1 2 -1q7 0 56 120q9 21 19.5 46t15.5 37z" />
    <glyph glyph-name="w" unicode="w" horiz-adv-x="448" 
d="M381 420q17 43 36 43q8 0 16 -8q7 -7 7 -17q0 -17 -23 -62q-17 -34 -24.5 -56.5t-18.5 -78.5q-13 -67 -25.5 -94.5t-34.5 -37.5q-14 -7 -22 -7t-24.5 18.5t-25.5 36.5q-6 12 -15 15q-7 2 -11.5 8.5t-21.5 35.5q-9 16 -14 16t-11 -18q-16 -49 -40 -74q-27 -29 -48 -29
q-20 0 -30 25q-13 32 -14 104q0 11 -0.5 26.5t-0.5 21t-1 13.5t-2.5 12.5t-4.5 10t-8 12.5q-11 19 -11 32q0 11 8 24q6 9 16.5 16.5t17.5 7.5q17 0 25 -18q8 -16 11 -64t5.5 -86t9.5 -38q25 0 44 79q11 46 25 57q7 6 16 6q8 0 17 -6q15 -10 26 -52q6 -23 25 -59
q27 -53 35 -53q1 0 1 2q0 3 10 15q10 10 12 29q4 42 45 135q13 30 23 57z" />
    <glyph glyph-name="x" unicode="x" horiz-adv-x="255" 
d="M9 410q1 14 9.5 23t21.5 9h3q13 -1 18.5 -10t8.5 -38q3 -27 9 -42q19 -40 27 -40t38 55q20 36 26.5 44.5t19.5 15.5q21 12 30 12q6 0 10 -4q5 -5 5 -12q0 -19 -44 -79q-52 -72 -52 -84q0 -4 20 -32t29 -37q8 -8 23 -6q14 2 17 2q8 0 14 -7q5 -7 5 -13q0 -11 -9 -21.5
t-22 -13.5q-8 -2 -13 -2q-29 0 -60 37q-28 34 -39 34q-3 0 -18 -43q-14 -40 -19 -46q-4 -4 -21 -4q-28 0 -28 18q0 11 9 29q1 3 5.5 11t10.5 19.5t10 19.5q19 35 19 48q0 12 -15 36q-48 77 -48 116v5z" />
    <glyph glyph-name="y" unicode="y" horiz-adv-x="268" 
d="M207 436q14 6 23 6q7 0 10 -3t9 -14q1 -2 1 -3l10 -20l-30 -59q-22 -43 -29 -62t-24 -80q-61 -218 -69 -318q-3 -38 -10 -51.5t-26 -16.5h-5q-15 0 -21 20q-2 6 -2 9q0 6 6 29q9 32 10 52q4 55 27 129q15 47 17 72l2 21l-16 14q-11 9 -15.5 17t-17.5 37q-34 81 -34 102
q0 12 -7 45q-8 37 -8 49q0 15 8 21q8 8 19 8q23 0 32 -20q5 -9 6 -50q1 -37 9 -58q6 -15 20 -51q15 -39 20 -39q2 0 4 2q10 8 34 79t25 97t22 36z" />
    <glyph glyph-name="z" unicode="z" horiz-adv-x="294" 
d="M217 435q5 1 14 1q35 0 35 -31q0 -1 -0.5 -3t-0.5 -4q-2 -9 -16.5 -37t-25.5 -43q-6 -9 -16 -11q-8 -1 -63 -56q-63 -63 -63 -70q0 -2 2 -4q3 -3 19 -3q31 0 63 8q31 8 61 8h32q9 16 14 16q4 0 9 -5t5 -14q0 -15 -11 -35l-8 -16l-16 1h-3q-19 0 -56 -7q-78 -13 -132 -13
q-3 0 -7.5 0.5t-5.5 0.5q-10 2 -22.5 14t-14.5 21q0 1 -0.5 3t-0.5 3q0 16 40 66q48 59 119 118q34 28 34 41q0 2 -5 2q-18 0 -73 -17q-57 -17 -75 -17t-18 15q0 23 20 39q8 7 25 7h24h18q22 0 56 10q19 6 43 12z" />
    <glyph glyph-name="nbsp" unicode="&#xa0;" 
 />
  </font>
</defs>
</svg>
